<svg width="1200" height="800" viewBox="0 0 1200 800" fill="none" xmlns="http://www.w3.org/2000/svg">
  <rect width="1200" height="800" rx="36" fill="#F5F7F6"/>
  <rect x="58" y="58" width="1084" height="684" rx="30" fill="url(#bg2)"/>
  <circle cx="950" cy="170" r="100" fill="#FFFFFF" fill-opacity="0.3"/>
  <circle cx="226" cy="632" r="108" fill="#0B1B12" fill-opacity="0.08"/>
  <rect x="114" y="102" width="388" height="192" rx="30" fill="#FFFFFF" fill-opacity="0.9"/>
  <text x="152" y="172" fill="#0B1B12" font-family="Arial, sans-serif" font-size="46" font-weight="700">Impulsa tu empresa</text>
  <text x="152" y="226" fill="#335245" font-family="Arial, sans-serif" font-size="28">Creditos y acompanamiento para</text>
  <text x="152" y="262" fill="#335245" font-family="Arial, sans-serif" font-size="28">proyectos con ambicion de crecer.</text>

  <rect x="150" y="370" width="352" height="222" rx="26" fill="#FFFFFF" fill-opacity="0.12"/>
  <rect x="694" y="160" width="318" height="248" rx="26" fill="#FFFFFF" fill-opacity="0.16"/>
  <rect x="720" y="194" width="134" height="170" rx="18" fill="#FFFFFF"/>
  <rect x="875" y="220" width="104" height="16" rx="8" fill="#B9E77D"/>
  <rect x="875" y="252" width="78" height="16" rx="8" fill="#E0EAE4"/>
  <rect x="875" y="284" width="86" height="16" rx="8" fill="#E0EAE4"/>
  <rect x="875" y="316" width="64" height="16" rx="8" fill="#E0EAE4"/>
  <rect x="742" y="220" width="90" height="120" rx="14" fill="#EAF6E5"/>
  <path d="M760 313L786 276L808 298L826 254" stroke="#007230" stroke-width="10" stroke-linecap="round" stroke-linejoin="round"/>

  <ellipse cx="634" cy="640" rx="192" ry="42" fill="#0C592C" fill-opacity="0.16"/>
  <circle cx="610" cy="305" r="56" fill="#FFD6BF"/>
  <path d="M556 301C556 249 593 220 628 220C668 220 700 252 698 300C676 286 649 279 613 279C605 291 585 300 556 301Z" fill="#1B1411"/>
  <path d="M520 444C520 386 560 347 617 347C675 347 716 386 716 444V554H520V444Z" fill="#007230"/>
  <rect x="548" y="431" width="140" height="36" rx="16" fill="#0F8B46"/>
  <rect x="560" y="552" width="44" height="130" rx="20" fill="#173A2B"/>
  <rect x="636" y="552" width="44" height="130" rx="20" fill="#173A2B"/>
  <rect x="700" y="434" width="94" height="148" rx="18" transform="rotate(-8 700 434)" fill="#0B1B12"/>
  <rect x="712" y="450" width="70" height="104" rx="12" transform="rotate(-8 712 450)" fill="#FFFFFF"/>
  <circle cx="750" cy="502" r="8" transform="rotate(-8 750 502)" fill="#59C13C"/>

  <circle cx="367" cy="431" r="34" fill="#FFD9C6"/>
  <path d="M338 428C338 399 360 381 385 381C408 381 426 400 425 426C410 418 392 413 370 413C365 421 354 427 338 428Z" fill="#603A20"/>
  <path d="M321 523C321 488 343 465 373 465C404 465 427 488 427 523V583H321V523Z" fill="#F6B93B"/>
  <rect x="338" y="581" width="29" height="90" rx="14" fill="#315247"/>
  <rect x="378" y="581" width="29" height="90" rx="14" fill="#315247"/>

  <defs>
    <linearGradient id="bg2" x1="90" y1="64" x2="1082" y2="736" gradientUnits="userSpaceOnUse">
      <stop stop-color="#0B1B12"/>
      <stop offset="0.55" stop-color="#007230"/>
      <stop offset="1" stop-color="#59C13C"/>
    </linearGradient>
  </defs>
</svg>
