<svg width="1200" height="800" viewBox="0 0 1200 800" fill="none" xmlns="http://www.w3.org/2000/svg">
  <rect width="1200" height="800" rx="36" fill="#F6F8F5"/>
  <rect x="64" y="64" width="1072" height="672" rx="30" fill="url(#bg3)"/>
  <circle cx="190" cy="150" r="90" fill="#FFFFFF" fill-opacity="0.32"/>
  <circle cx="1020" cy="618" r="118" fill="#B9E77D" fill-opacity="0.25"/>
  <rect x="108" y="104" width="382" height="182" rx="28" fill="#FFFFFF" fill-opacity="0.92"/>
  <text x="146" y="172" fill="#0B1B12" font-family="Arial, sans-serif" font-size="44" font-weight="700">Asesoria cercana</text>
  <text x="146" y="223" fill="#335245" font-family="Arial, sans-serif" font-size="28">Resuelve dudas, conoce productos</text>
  <text x="146" y="258" fill="#335245" font-family="Arial, sans-serif" font-size="28">y decide con informacion clara.</text>

  <rect x="720" y="180" width="270" height="176" rx="26" fill="#FFFFFF" fill-opacity="0.16"/>
  <rect x="752" y="214" width="204" height="108" rx="18" fill="#FFFFFF"/>
  <rect x="782" y="240" width="96" height="12" rx="6" fill="#59C13C"/>
  <rect x="782" y="264" width="144" height="12" rx="6" fill="#E0EAE4"/>
  <rect x="782" y="288" width="120" height="12" rx="6" fill="#E0EAE4"/>

  <ellipse cx="566" cy="642" rx="238" ry="44" fill="#0C592C" fill-opacity="0.14"/>
  <ellipse cx="860" cy="636" rx="142" ry="30" fill="#0C592C" fill-opacity="0.12"/>

  <circle cx="474" cy="324" r="50" fill="#FFD6BF"/>
  <path d="M426 315C426 269 460 238 494 238C530 238 557 269 556 316C538 302 515 294 486 293C479 305 462 313 426 315Z" fill="#322019"/>
  <path d="M403 444C403 389 439 351 492 351C547 351 585 389 585 444V538H403V444Z" fill="#59C13C"/>
  <rect x="430" y="431" width="126" height="30" rx="14" fill="#93DF6C"/>
  <rect x="442" y="536" width="42" height="132" rx="20" fill="#1E5137"/>
  <rect x="506" y="536" width="42" height="132" rx="20" fill="#1E5137"/>

  <circle cx="755" cy="349" r="46" fill="#FFD8C5"/>
  <path d="M714 343C714 305 741 278 774 278C806 278 832 304 832 341C813 333 791 329 765 330C760 338 748 344 714 343Z" fill="#0B1B12"/>
  <path d="M688 451C688 401 721 367 769 367C820 367 854 401 854 451V538H688V451Z" fill="#F6B93B"/>
  <rect x="717" y="536" width="38" height="128" rx="18" fill="#315247"/>
  <rect x="779" y="536" width="38" height="128" rx="18" fill="#315247"/>

  <rect x="566" y="420" width="148" height="104" rx="18" fill="#FFFFFF"/>
  <rect x="586" y="442" width="106" height="14" rx="7" fill="#B9E77D"/>
  <rect x="586" y="470" width="82" height="14" rx="7" fill="#E0EAE4"/>
  <rect x="586" y="498" width="62" height="14" rx="7" fill="#E0EAE4"/>

  <defs>
    <linearGradient id="bg3" x1="86" y1="88" x2="1058" y2="714" gradientUnits="userSpaceOnUse">
      <stop stop-color="#59C13C"/>
      <stop offset="0.5" stop-color="#007230"/>
      <stop offset="1" stop-color="#0B1B12"/>
    </linearGradient>
  </defs>
</svg>
