<svg width="1200" height="800" viewBox="0 0 1200 800" fill="none" xmlns="http://www.w3.org/2000/svg">
  <rect width="1200" height="800" rx="36" fill="#F4F8F3"/>
  <rect x="60" y="60" width="1080" height="680" rx="30" fill="url(#bg)"/>
  <circle cx="203" cy="178" r="92" fill="#B9E77D" fill-opacity="0.45"/>
  <circle cx="1030" cy="144" r="72" fill="#FFFFFF" fill-opacity="0.36"/>
  <circle cx="936" cy="616" r="112" fill="#59C13C" fill-opacity="0.18"/>
  <rect x="92" y="104" width="322" height="170" rx="28" fill="#FFFFFF" fill-opacity="0.88"/>
  <text x="128" y="168" fill="#0B1B12" font-family="Arial, sans-serif" font-size="44" font-weight="700">Ahorra en familia</text>
  <text x="128" y="218" fill="#335245" font-family="Arial, sans-serif" font-size="28">Metas compartidas con respaldo</text>
  <text x="128" y="254" fill="#335245" font-family="Arial, sans-serif" font-size="28">cooperativo y acompanamiento humano.</text>
  <rect x="127" y="470" width="950" height="190" rx="28" fill="#FFFFFF" fill-opacity="0.18"/>
  <ellipse cx="360" cy="603" rx="155" ry="38" fill="#0C592C" fill-opacity="0.16"/>
  <ellipse cx="660" cy="609" rx="132" ry="32" fill="#0C592C" fill-opacity="0.16"/>
  <ellipse cx="846" cy="615" rx="110" ry="28" fill="#0C592C" fill-opacity="0.14"/>

  <circle cx="355" cy="340" r="48" fill="#FFD3B0"/>
  <path d="M309 337C309 295 333 270 356 270C394 270 411 306 402 342C391 323 372 309 345 301C337 321 324 334 309 337Z" fill="#0B1B12"/>
  <path d="M292 432C292 392 321 367 357 367C397 367 425 397 425 441V493H292V432Z" fill="#007230"/>
  <rect x="310" y="492" width="38" height="114" rx="18" fill="#173A2B"/>
  <rect x="368" y="492" width="38" height="114" rx="18" fill="#173A2B"/>
  <rect x="280" y="432" width="142" height="31" rx="14" fill="#0F8B46"/>

  <circle cx="667" cy="330" r="43" fill="#FFD5BF"/>
  <path d="M627 321C629 282 657 261 685 261C715 261 740 287 739 326C722 309 699 300 668 298C661 313 647 321 627 321Z" fill="#6A3A1A"/>
  <path d="M615 432C615 392 639 365 674 365C709 365 735 392 735 432V484H615V432Z" fill="#F6B93B"/>
  <rect x="632" y="484" width="34" height="114" rx="16" fill="#315247"/>
  <rect x="684" y="484" width="34" height="114" rx="16" fill="#315247"/>
  <rect x="600" y="433" width="150" height="26" rx="12" fill="#FFD166"/>

  <circle cx="843" cy="360" r="36" fill="#FFDCC7"/>
  <path d="M811 353C811 326 829 301 853 301C876 301 894 321 894 351C875 341 856 337 832 337C829 344 821 350 811 353Z" fill="#3B2617"/>
  <path d="M799 435C799 404 818 382 846 382C875 382 896 404 896 435V488H799V435Z" fill="#59C13C"/>
  <rect x="816" y="487" width="29" height="100" rx="14" fill="#1E5137"/>
  <rect x="853" y="487" width="29" height="100" rx="14" fill="#1E5137"/>
  <rect x="790" y="433" width="112" height="22" rx="11" fill="#93DF6C"/>

  <rect x="485" y="430" width="132" height="92" rx="18" fill="#FFFFFF"/>
  <rect x="507" y="452" width="88" height="12" rx="6" fill="#B9E77D"/>
  <rect x="507" y="475" width="56" height="12" rx="6" fill="#D9E2DD"/>
  <rect x="507" y="498" width="72" height="12" rx="6" fill="#D9E2DD"/>

  <defs>
    <linearGradient id="bg" x1="140" y1="96" x2="1040" y2="704" gradientUnits="userSpaceOnUse">
      <stop stop-color="#007230"/>
      <stop offset="1" stop-color="#59C13C"/>
    </linearGradient>
  </defs>
</svg>
